<svg width="32" height="41" viewBox="0 0 32 41" fill="currentColor" xmlns="http://www.w3.org/2000/svg">
    <path d="M1.31032 39.7285C0.703403 39.1266 0.192365 38.0874 0.107991 37.24C-0.0760972 35.3722 -0.0358279 31.3912 0.314132 29.5789C1.27197 24.6085 5.8598 20.4705 11.0498 20.1376C13.8686 19.957 18.1515 19.9513 20.9675 20.1376C25.9274 20.4658 30.3436 24.2709 31.5238 28.9592C32.0454 31.0301 32.078 34.7271 31.9083 36.8864C31.7319 39.1369 30.1278 40.8044 27.8133 41H4.20396C3.17038 40.9238 2.04188 40.4536 1.31128 39.7285H1.31032ZM6.87516 35.154C6.79654 35.0666 6.88571 33.1574 6.86845 32.8179C6.85215 32.5038 6.8138 31.7721 6.75531 31.5144C6.5741 30.7103 5.21741 30.7207 5.06879 31.6781C4.85978 33.0192 5.19727 34.855 5.08222 36.2487C5.31137 37.2438 8.01996 37.2955 7.65658 35.755C7.5281 35.2114 6.94611 35.2312 6.87516 35.1531V35.154ZM9.4524 35.1804C8.55018 35.3732 8.57223 36.8883 9.70169 36.8854C10.9241 36.8826 10.8206 34.8879 9.4524 35.1804ZM22.6924 36.6381C23.422 35.8744 22.3415 34.6396 21.4536 35.3788C20.5178 36.1575 21.8966 37.4704 22.6924 36.6381ZM25.4911 35.1823C24.4575 35.3779 24.6387 36.9485 25.7078 36.8817C27.0089 36.7999 26.7078 34.9528 25.4911 35.1823Z" fill="currentColor"/>
    <path d="M15.487 0.0443395C22.4924 -0.6358 27.3451 6.64074 23.8233 12.8013C20.8927 17.9282 13.7065 18.4292 9.93395 13.9221C5.66201 8.81814 8.88917 0.685204 15.487 0.0443395ZM20.1522 9.17162C21.1051 8.28936 19.6805 5.92994 18.807 5.30824C18.0549 4.77275 15.5731 3.89527 15.5913 5.4663C15.6037 6.52195 17.1145 6.18955 17.8885 6.85819C18.6625 7.52684 18.4721 7.91672 18.6931 8.753C18.8538 9.36034 19.7015 9.58929 20.1512 9.17258L20.1522 9.17162Z" fill="currentColor"/>
</svg>