<svg width="344" height="344" viewBox="0 0 344 344" fill="none" xmlns="http://www.w3.org/2000/svg">
<g clip-path="url(#clip0_400_10793)">
<path d="M172.013 0.362274C266.799 0.362274 343.638 77.2013 343.638 171.987C343.638 266.773 266.799 343.612 172.013 343.612C77.2272 343.612 0.388184 266.773 0.388184 171.987C0.388184 77.2013 77.2272 0.362274 172.013 0.362274Z" stroke="#9FD5E2" stroke-miterlimit="10"/>
<path d="M172.013 9.2644C261.882 9.2644 334.736 82.1178 334.736 171.987C334.736 261.856 261.882 334.71 172.013 334.71C82.1437 334.71 9.29028 261.856 9.29028 171.987C9.29028 82.1178 82.1437 9.2644 172.013 9.2644Z" stroke="#9FD5E2" stroke-miterlimit="10"/>
<path d="M172.013 147.506C261.882 147.506 334.736 158.467 334.736 171.987C334.736 185.507 261.882 196.468 172.013 196.468C82.1437 196.468 9.29028 185.507 9.29028 171.987C9.29028 158.467 82.1437 147.506 172.013 147.506Z" stroke="#9FD5E2" stroke-miterlimit="10"/>
<path d="M172.013 100.822C257.737 100.822 327.231 111.272 327.231 124.164C327.231 137.056 257.737 147.506 172.013 147.506C86.2884 147.506 16.7949 137.056 16.7949 124.164C16.7949 111.272 86.2884 100.822 172.013 100.822Z" stroke="#9FD5E2" stroke-miterlimit="10"/>
<path d="M172.013 61.6938C243.788 61.6938 301.974 70.4529 301.974 81.2578C301.974 92.0627 243.788 100.822 172.013 100.822C100.238 100.822 42.0522 92.0627 42.0522 81.2578C42.0522 70.4529 100.238 61.6938 172.013 61.6938Z" stroke="#9FD5E2" stroke-miterlimit="10"/>
<path d="M172.013 31.054C228.281 31.054 273.896 37.9129 273.896 46.3739C273.896 54.8349 228.281 61.6938 172.013 61.6938C115.745 61.6938 70.1301 54.8349 70.1301 46.3739C70.1301 37.9129 115.745 31.054 172.013 31.054Z" stroke="#9FD5E2" stroke-miterlimit="10"/>
<path d="M172.013 17.4679C208.601 17.4679 238.261 20.5034 238.261 24.248C238.261 27.9925 208.601 31.0281 172.013 31.0281C135.425 31.0281 105.765 27.9925 105.765 24.248C105.765 20.5034 135.425 17.4679 172.013 17.4679Z" stroke="#9FD5E2" stroke-miterlimit="10"/>
<path d="M172.013 196.494C257.737 196.494 327.231 206.944 327.231 219.836C327.231 232.728 257.737 243.178 172.013 243.178C86.2884 243.178 16.7949 232.728 16.7949 219.836C16.7949 206.944 86.2884 196.494 172.013 196.494Z" stroke="#9FD5E2" stroke-miterlimit="10"/>
<path d="M172.013 243.178C243.788 243.178 301.974 251.937 301.974 262.742C301.974 273.547 243.788 282.306 172.013 282.306C100.238 282.306 42.0522 273.547 42.0522 262.742C42.0522 251.937 100.238 243.178 172.013 243.178Z" stroke="#9FD5E2" stroke-miterlimit="10"/>
<path d="M172.013 282.306C228.281 282.306 273.896 289.165 273.896 297.626C273.896 306.087 228.281 312.946 172.013 312.946C115.745 312.946 70.1301 306.087 70.1301 297.626C70.1301 289.165 115.745 282.306 172.013 282.306Z" stroke="#9FD5E2" stroke-miterlimit="10"/>
<path d="M172.013 312.972C208.601 312.972 238.261 316.008 238.261 319.752C238.261 323.497 208.601 326.532 172.013 326.532C135.425 326.532 105.765 323.497 105.765 319.752C105.765 316.008 135.425 312.972 172.013 312.972Z" stroke="#9FD5E2" stroke-miterlimit="10"/>
</g>
<defs>
<clipPath id="clip0_400_10793">
<rect width="344" height="344" fill="white" transform="matrix(1 0 0 -1 0 344)"/>
</clipPath>
</defs>
</svg>
