<svg width="101" height="101" viewBox="0 0 101 101" fill="none" xmlns="http://www.w3.org/2000/svg">
<g clip-path="url(#clip0_181_9908)">
<path d="M50.5031 100.893C78.3326 100.893 100.893 78.3331 100.893 50.5036C100.893 22.6741 78.3326 0.11377 50.5031 0.11377C22.6736 0.11377 0.113281 22.6741 0.113281 50.5036C0.113281 78.3331 22.6736 100.893 50.5031 100.893Z" stroke="#EE3124" stroke-miterlimit="10"/>
<path d="M50.5046 98.2798C76.8907 98.2798 98.2808 76.8897 98.2808 50.5037C98.2808 24.1176 76.8907 2.72754 50.5046 2.72754C24.1186 2.72754 2.72852 24.1176 2.72852 50.5037C2.72852 76.8897 24.1186 98.2798 50.5046 98.2798Z" stroke="#EE3124" stroke-miterlimit="10"/>
<path d="M50.5046 57.6913C76.8907 57.6913 98.2808 54.4733 98.2808 50.5036C98.2808 46.534 76.8907 43.3159 50.5046 43.3159C24.1186 43.3159 2.72852 46.534 2.72852 50.5036C2.72852 54.4733 24.1186 57.6913 50.5046 57.6913Z" stroke="#EE3124" stroke-miterlimit="10"/>
<path d="M50.5044 71.3982C75.6735 71.3982 96.0771 68.3298 96.0771 64.5448C96.0771 60.7598 75.6735 57.6914 50.5044 57.6914C25.3352 57.6914 4.93164 60.7598 4.93164 64.5448C4.93164 68.3298 25.3352 71.3982 50.5044 71.3982Z" stroke="#EE3124" stroke-miterlimit="10"/>
<path d="M50.5047 82.8866C71.5783 82.8866 88.6618 80.3149 88.6618 77.1425C88.6618 73.9701 71.5783 71.3984 50.5047 71.3984C29.4312 71.3984 12.3477 73.9701 12.3477 77.1425C12.3477 80.3149 29.4312 82.8866 50.5047 82.8866Z" stroke="#EE3124" stroke-miterlimit="10"/>
<path d="M50.5031 91.8822C67.0237 91.8822 80.4164 89.8684 80.4164 87.3842C80.4164 84.9001 67.0237 82.8862 50.5031 82.8862C33.9825 82.8862 20.5898 84.9001 20.5898 87.3842C20.5898 89.8684 33.9825 91.8822 50.5031 91.8822Z" stroke="#EE3124" stroke-miterlimit="10"/>
<path d="M50.5036 95.8715C61.246 95.8715 69.9544 94.9802 69.9544 93.8808C69.9544 92.7814 61.246 91.8901 50.5036 91.8901C39.7612 91.8901 31.0527 92.7814 31.0527 93.8808C31.0527 94.9802 39.7612 95.8715 50.5036 95.8715Z" stroke="#EE3124" stroke-miterlimit="10"/>
<path d="M50.5044 43.3083C75.6735 43.3083 96.0771 40.24 96.0771 36.4549C96.0771 32.6699 75.6735 29.6016 50.5044 29.6016C25.3352 29.6016 4.93164 32.6699 4.93164 36.4549C4.93164 40.24 25.3352 43.3083 50.5044 43.3083Z" stroke="#EE3124" stroke-miterlimit="10"/>
<path d="M50.5047 29.6019C71.5783 29.6019 88.6618 27.0302 88.6618 23.8578C88.6618 20.6855 71.5783 18.1138 50.5047 18.1138C29.4312 18.1138 12.3477 20.6855 12.3477 23.8578C12.3477 27.0302 29.4312 29.6019 50.5047 29.6019Z" stroke="#EE3124" stroke-miterlimit="10"/>
<path d="M50.5031 18.1137C67.0237 18.1137 80.4164 16.0999 80.4164 13.6157C80.4164 11.1315 67.0237 9.11768 50.5031 9.11768C33.9825 9.11768 20.5898 11.1315 20.5898 13.6157C20.5898 16.0999 33.9825 18.1137 50.5031 18.1137Z" stroke="#EE3124" stroke-miterlimit="10"/>
<path d="M50.5036 9.10976C61.246 9.10976 69.9544 8.21851 69.9544 7.11909C69.9544 6.01967 61.246 5.12842 50.5036 5.12842C39.7612 5.12842 31.0527 6.01967 31.0527 7.11909C31.0527 8.21851 39.7612 9.10976 50.5036 9.10976Z" stroke="#EE3124" stroke-miterlimit="10"/>
</g>
<defs>
<clipPath id="clip0_181_9908">
<rect width="101" height="101" fill="white"/>
</clipPath>
</defs>
</svg>
